<svg
  version="1.1"
  id="Layer_1"
  xmlns="http://www.w3.org/2000/svg"
  xmlns:xlink="http://www.w3.org/1999/xlink"
  viewBox="0 0 64 64"
  enable-background="new 0 0 64 64"
  xml:space="preserve"
  fill="#000000"
>
  <g id="SVGRepo_bgCarrier" stroke-width="0"></g>
  <g
    id="SVGRepo_tracerCarrier"
    stroke-linecap="round"
    stroke-linejoin="round"
  ></g>
  <g id="SVGRepo_iconCarrier">
    {" "}
    <path
      fill="#4caf50"
      d="M16.581,29H4c-1.657,0-3,1.343-3,3s1.343,3,3,3h15.062l3.459,14.648 c0.324,1.379,1.529,2.352,2.94,2.352h28c1.411,0,2.617-0.973,2.939-2.352L59.939,35H44.02c-1.654,0-3-1.346-3-3s1.346-3,3-3H59 c1.655,0,3-1.346,3-3s-1.345-3-3-3H44.019c-1.654,0-3-1.346-3-3s1.346-3,3-3H59c1.655,0,3-1.346,3-3s-1.345-3-3-3H31.311 c-1.765,0-3.459,1.149-4.02,2.846l-2.5,8.654C24.234,23.411,22.697,22,20.938,22H3c-0.552,0-1-0.448-1-1s0.448-1,1-1h19.125 l3.881-13.472c0.444-1.541,2.029-2.528,3.603-2.528H53c1.318,0,2.56,0.723,3.207,1.883l10,18 C66.783,26.961,67,27.475,67,28s-0.217,1.039-0.793,1.344l-10,7C55.56,36.277,54.318,37,53,37H25.541l-3.881,13.473 C21.217,50.961,20.695,51,20.188,51H4c-1.654,0-3-1.346-3-3s1.346-3,3-3H19.58L16.581,29z"
    >
      {" "}
    </path>{" "}
    <circle fill="#ffc107" cx="10.5" cy="55.5" r="1.5"></circle>{" "}
    <circle fill="#ffc107" cx="21.5" cy="55.5" r="1.5"></circle>{" "}
    <circle fill="#ffc107" cx="32.5" cy="55.5" r="1.5"></circle>{" "}
    <circle fill="#ffc107" cx="43.5" cy="55.5" r="1.5"></circle>{" "}
    <circle fill="#ffc107" cx="54.5" cy="55.5" r="1.5"></circle>{" "}
  </g>
</svg>
